# AST/ASF file generated using VICON BodyLanguage
# -----------------------------------------------
:version 1.10
:name VICON
:units
  mass 1.0
  length 0.45
  angle deg
:documentation
   .ast/.asf automatically generated from VICON data using
   VICON BodyBuilder and BodyLanguage model FoxedUp or BRILLIANT.MOD
:root
   order TX TY TZ RX RY RZ
   axis XYZ
   position 0 0 0  
   orientation 0 -0 0 
:bonedata
  begin
     id 1 
     name lhipjoint
     direction 0.500677 -0.737119 0.453848 
     length 2.34727 
     axis 0 -0 0  XYZ
  end
  begin
     id 2 
     name lfemur
     direction 0.34202 -0.939693 0  
     length 7.53653  
     axis 0 -0 20  XYZ
    dof rx ry rz
    limits (-160.0 20.0)
           (-70.0 70.0)
           (-60.0 70.0)
  end
  begin
     id 3 
     name ltibia
     direction 0.34202 -0.939693 0   
     length 6.85572   
     axis 0 -0 20   XYZ
    dof rx
    limits (-10.0 170.0)
  end
  begin
     id 4 
     name lfoot
     direction 0.155313 -0.426718 0.890949   
     length 2.18324   
     axis -90 -1.13533e-015 20   XYZ
    dof rx rz
    limits (-45.0 90.0)
           (-70.0 20.0)
  end
  begin
     id 5 
     name ltoes
     direction 1.53474e-011 -4.21647e-011 1   
     length 1.06748   
     axis -90 -1.13533e-015 20   XYZ
    dof rx
    limits (-90.0 20.0)
  end
  begin
     id 6 
     name rhipjoint
     direction -0.632471 -0.659587 0.406111   
     length 2.62319  
     axis 0 -0 0  XYZ 
  end
  begin
     id 7 
     name rfemur
     direction -0.34202 -0.939693 0   
     length 7.21735   
     axis 0 -0 -20   XYZ
    dof rx ry rz
    limits (-160.0 20.0)
           (-70.0 70.0)
           (-70.0 60.0)
  end
  begin
     id 8 
     name rtibia
     direction -0.34202 -0.939693 0   
     length 7.02558   
     axis 0 -0 -20   XYZ
    dof rx
    limits (-10.0 170.0)
 end
 begin
     id 9 
     name rfoot
     direction -0.16057 -0.441164 0.882945   
     length 2.10014  
     axis -90 1.13533e-015 -20   XYZ
    dof rx rz
    limits (-45.0 90.0)
           (-20.0 70.0)
  end
  begin
     id 10 
     name rtoes
     direction -1.53553e-011 -4.2192e-011 1   
     length 1.02554   
     axis -90 1.13533e-015 -20   XYZ
    dof rx
    limits (-90.0 20.0)
  end
  begin
     id 11 
     name lowerback
     direction 0.0401429 0.998861 -0.0258085   
     length 1.80848   
     axis 0 -0 0   XYZ
    dof rx ry rz
    limits (-20.0 45.0)
           (-30.0 30.0)
           (-30.0 30.0)
  end
  begin
     id 12 
     name upperback
     direction -0.0130978 0.999914 -0.000352645   
     length 1.8116   
     axis 0 -0 0   XYZ
    dof rx ry rz
    limits (-20.0 45.0)
           (-30.0 30.0)
           (-30.0 30.0)
  end
  begin
     id 13 
     name thorax
     direction -0.0300198 0.999453 0.0138573   
     length 1.81778   
     axis 0 -0 0   XYZ
    dof rx ry rz
    limits (-20.0 45.0)
           (-30.0 30.0)
           (-30.0 30.0)
  end
  begin
     id 14 
     name lowerneck
     direction -0.0401726 0.999191 -0.00173647   
     length 2.10594   
     axis 0 -0 0   XYZ
    dof rx ry rz
    limits (-20.0 45.0)
           (-30.0 30.0)
           (-30.0 30.0)
  end
  begin
     id 15 
     name upperneck
     direction 0.0119835 0.998501 0.0534085   
     length 2.07325   
     axis 0 -0 0   XYZ
    dof rx ry rz
    limits (-20.0 45.0)
           (-30.0 30.0)
           (-30.0 30.0)
  end
  begin
     id 16
     name head
     direction 0.00628309 0.999826 0.0175921  
     length 2.15096  
     axis 0 -0 0   XYZ
    dof rx ry rz
    limits (-20.0 45.0)
           (-30.0 30.0)
           (-30.0 30.0)
  end
  begin
     id 17 
     name lclavicle
     direction 0.895501 0.429681 -0.115981  
     length 4.18092  
     axis 0 -0 0   XYZ
    dof ry rz
    limits (-20.0 10.0)
           (0.0 20.0)
  end
  begin
     id 18 
     name lhumerus
     direction 1 -4.48961e-011 -3.38433e-028   
     length 5.77237   
     axis 180 -30 -90   XYZ
    dof rx ry rz
    limits (-60.0 90.0)
           (-90.0 90.0)
           (-90.0 90.0)
  end
  begin
     id 19
     name lradius
     direction 1 -4.4901e-011 1.11983e-026   
     length 2.91878   
     axis 180 -30 -90   XYZ
    dof rx
    limits (-10.0 170.0)
  end
  begin
     id 20
     name lwrist
     direction 1 -4.48934e-011 1.88176e-026   
     length 1.45939   
     axis -1.23311e-014 90 90   XYZ
    dof ry
    limits (-180.0 0.0)
 end
  begin
     id 21 
     name lhand
     direction 1 -4.4895e-011 3.76352e-026   
     length 1.06566   
     axis -2.40147e-014 90 90   XYZ
    dof rx rz
    limits (-90.0 90.0)
           (-45.0 45.0)
  end
  begin
     id 22 
     name lfingers
     direction 1 -4.49005e-011 7.52705e-026   
     length 0.859162   
     axis -4.80295e-014 90 90   XYZ
    dof rx
    limits (0.0 90.0)
  end
  begin
     id 23
     name lthumb
     direction 0.707107 -6.34885e-011 0.707107   
     length 1.23359   
     axis -90 45 -9.86935e-015   XYZ
    dof rx rz
    limits (-45.0 45.0)
           (-45.0 45.0)
  end
  begin
     id 24 
     name rclavicle
     direction -0.91006 0.40451 -0.0903492   
     length 4.23293  
     axis 0 -0 0   XYZ 
    dof ry rz
    limits (-10.0 20.0)
           (-20.0 0.0)
  end
  begin
     id 25 
     name rhumerus
     direction -1 -4.4897e-011 1.7415e-027  
     length 5.49854   
     axis 180 30 90   XYZ
    dof rx ry rz
    limits (-90.0 60.0)
           (-90.0 90.0)
           (-90.0 90.0)
  end
  begin
     id 26 
     name rradius
     direction -1 -4.48963e-011 1.21259e-026   
     length 3.1186   
     axis 180 30 90   XYZ
    dof rx
    limits (-10.0 170.0)
  end
  begin
     id 27 
     name rwrist
     direction -1 -4.48967e-011 1.88176e-026   
     length 1.5593   
     axis -1.23311e-014 -90 -90   XYZ
    dof ry
    limits (-180.0 0.0)
  end
  begin
     id 28
     name rhand
     direction -1 -4.4895e-011 3.76352e-026   
     length 0.71207   
     axis -2.40147e-014 -90 -90   XYZ
    dof rx rz
    limits (-90.0 90.0)
           (-45.0 45.0)
  end
  begin
     id 29
     name rfingers
     direction -1 -4.49005e-011 7.52705e-026   
     length 0.574089   
     axis -4.80295e-014 -90 -90   XYZ
    dof rx
    limits (0.0 90.0)
  end
  begin
     id 30
     name rthumb
     direction -0.707107 -6.34982e-011 0.707107   
     length 0.824281   
     axis -90 -45 9.86935e-015   XYZ
    dof rx rz
    limits (-45.0 45.0)
           (-45.0 45.0)
  end
:hierarchy
  begin
    root lhipjoint rhipjoint lowerback
    lhipjoint lfemur
    lfemur ltibia
    ltibia lfoot
    lfoot ltoes
    rhipjoint rfemur
    rfemur rtibia
    rtibia rfoot
    rfoot rtoes
    lowerback upperback
    upperback thorax
    thorax lowerneck lclavicle rclavicle
    lowerneck upperneck
    upperneck head
    lclavicle lhumerus
    lhumerus lradius
    lradius lwrist
    lwrist lhand lthumb
    lhand lfingers
    rclavicle rhumerus
    rhumerus rradius
    rradius rwrist
    rwrist rhand rthumb
    rhand rfingers
  end

#!OML:ASF C:\ViconDB\ViconDB\414\Spring2016\042216\male.ASF
:FULLY-SPECIFIED
:DEGREES
34
root -19.3337 16.8758 12.7744 -179.457 76.703 -179.442
lowerback 1.23265 -2.58118 2.54624
upperback 1.66513 -3.40854 -0.906343
thorax 0.813764 -1.66736 -2.33062
lowerneck 9.50866 6.53757 -5.00218
upperneck -20.9195 11.9304 13.0082
head -9.23958 5.05548 3.88388
rclavicle -1.05604e-014 -1.39149e-015
rhumerus -30.2544 -6.39357 -88.3189
rradius 32.1063
rwrist 30.508
rhand 10.0731 -21.1839
rfingers 7.12502
rthumb 35.1957 -47.6941
lclavicle -1.05604e-014 -1.39149e-015
lhumerus -33.4874 17.9368 81.8399
lradius 35.3835
lwrist -5.16174
lhand -14.0478 16.5428
lfingers 7.12502
lthumb 12.083 46.1739
rfemur -12.8898 6.70347 11.7111
rtibia 27.4082
rfoot -14.5176 -0.0537441
rtoes -17.5987
lfemur 2.78298 -22.6384 -12.2391
ltibia 17.0057
lfoot -23.7477 23.548
ltoes -20.4623
35
root -19.2966 16.8815 12.8535 -179.172 76.3901 -179.332
lowerback 1.07801 -2.66831 2.73303
upperback 1.76103 -3.52881 -0.809343
thorax 0.986846 -1.72183 -2.34491
lowerneck 9.54905 6.42967 -4.96745
upperneck -21.1673 11.9034 13.2349
head -9.34486 5.01683 3.96147
rclavicle 1.43373e-014 1.43125e-014
rhumerus -29.9376 -6.34789 -88.2469
rradius 32.2179
rwrist 30.1035
rhand 10.1912 -20.713
rfingers 7.12502
rthumb 35.3076 -47.1966
lclavicle 1.43373e-014 1.43125e-014
lhumerus -33.3273 17.1497 82.5804
lradius 35.6673
lwrist -4.716
lhand -13.9171 16.7137
lfingers 7.12502
lthumb 12.2091 46.3374
rfemur -13.0121 6.41811 12.0177
rtibia 27.6254
rfoot -14.8218 -0.00481241
rtoes -17.2518
lfemur 2.55471 -22.4253 -11.7787
ltibia 16.8928
lfoot -23.4323 23.2826
ltoes -20.6326
36
root -19.2709 16.8863 12.9259 -180.253 75.9514 -180.701
lowerback 1.06782 -2.78127 2.70926
upperback 1.72905 -3.67948 -0.855366
thorax 0.949117 -1.79834 -2.37679
lowerneck 9.72839 6.31582 -4.7801
upperneck -21.4192 11.8649 13.3581
head -9.46155 4.96196 3.97522
rclavicle -5.83681e-014 -4.37326e-015
rhumerus -29.7962 -6.48663 -88.1702
rradius 32.4492
rwrist 29.7308
rhand 9.95379 -20.862
rfingers 7.12502
rthumb 35.0825 -47.3987
lclavicle -5.83681e-014 -4.37326e-015
lhumerus -33.0695 16.4451 83.1696
lradius 35.5182
lwrist -4.58553
lhand -13.6485 16.595
lfingers 7.12502
lthumb 12.468 46.2031
rfemur -13.2564 5.78789 11.8695
rtibia 27.915
rfoot -15.1807 0.312797
rtoes -16.8297
lfemur 2.17009 -22.1526 -11.6509
ltibia 16.7736
lfoot -23.1838 22.7913
ltoes -20.6047
37
root -19.2439 16.8957 13.0003 -180.266 75.571 -180.958
lowerback 1.03673 -2.89032 2.88091
upperback 1.75574 -3.82577 -0.79187
thorax 0.978474 -1.86897 -2.40839
lowerneck 9.65778 6.19038 -4.60821
upperneck -21.4668 11.7743 13.4821
head -9.45407 4.90158 4.00417
rclavicle 6.01696e-014 -6.95746e-015
rhumerus -29.5346 -6.43041 -88.0969
rradius 32.6301
rwrist 29.1946
rhand 9.99462 -20.9809
rfingers 7.12502
rthumb 35.1212 -47.5086
lclavicle 6.01696e-014 -6.95746e-015
lhumerus -32.8673 15.7404 83.8439
lradius 35.5927
lwrist -4.67486
lhand -13.5182 16.7576
lfingers 7.12502
lthumb 12.5937 46.358
rfemur -13.5027 5.31753 12.0491
rtibia 28.1758
rfoot -15.3769 0.459178
rtoes -16.5984
lfemur 1.73797 -21.6071 -11.2348
ltibia 16.734
lfoot -22.8512 22.2049
ltoes -21.0404
38
root -19.2146 16.9027 13.0754 -181.144 75.1837 -182.101
lowerback 1.03224 -2.98398 2.80188
upperback 1.73248 -3.95094 -0.788636
thorax 0.954715 -1.93322 -2.35926
lowerneck 9.83314 6.13443 -4.69367
upperneck -21.6936 11.8323 13.8443
head -9.60539 4.89255 4.13578
rclavicle -1.24132e-014 6.60959e-015
rhumerus -29.4251 -6.66707 -87.9683
rradius 32.8386
rwrist 28.7276
rhand 9.86424 -21.1525
rfingers 7.12502
rthumb 34.9976 -47.7091
lclavicle -1.24132e-014 6.60959e-015
lhumerus -32.7551 15.0936 84.4594
lradius 35.6869
lwrist -4.81395
lhand -13.2707 16.8147
lfingers 7.12502
lthumb 12.8322 46.4002
rfemur -13.7894 4.7796 11.9644
rtibia 28.4903
rfoot -15.5991 0.690561
rtoes -16.0095
lfemur 1.33225 -21.1804 -11.0937
ltibia 16.7069
lfoot -22.5815 21.688
ltoes -20.9124
39
root -19.1887 16.912 13.1496 -180.97 74.8253 -182.154
lowerback 1.0148 -3.04808 3.03922
upperback 1.75417 -4.03647 -0.771187
thorax 0.966906 -1.97281 -2.47414
lowerneck 9.84178 6.01366 -4.43187
upperneck -21.7607 11.7929 14.034
head -9.62592 4.84016 4.16385
rclavicle -6.41077e-014 -5.80824e-016
rhumerus -29.2403 -6.79585 -87.9219
rradius 33.0432
rwrist 28.2217
rhand 9.80351 -21.1545
rfingers 7.12502
rthumb 34.94 -47.7246
lclavicle -6.41077e-014 -5.80824e-016
lhumerus -32.476 14.2854 85.0201
lradius 35.5694
lwrist -5.05771
lhand -13.0218 16.735
lfingers 7.12502
lthumb 13.0722 46.3054
rfemur -14.0234 4.59785 12.2048
rtibia 28.716
rfoot -15.7974 0.552717
rtoes -16.2656
lfemur 0.826701 -20.7701 -10.6463
ltibia 16.8388
lfoot -22.3748 21.1778
ltoes -20.8551
40
root -19.1631 16.9174 13.2207 -181.536 74.5183 -182.932
lowerback 1.0698 -3.07527 3.12842
upperback 1.70229 -4.07095 -0.704443
thorax 0.87939 -1.99178 -2.44982
lowerneck 9.97195 5.89187 -4.44002
upperneck -21.7824 11.6483 14.139
head -9.65071 4.75688 4.21848
rclavicle 5.21002e-014 6.31141e-015
rhumerus -29.2636 -7.05583 -87.6194
rradius 33.2611
rwrist 27.9166
rhand 9.64577 -21.2747
rfingers 7.12502
rthumb 34.7903 -47.8795
lclavicle 5.21002e-014 6.31141e-015
lhumerus -32.4832 13.3206 85.8287
lradius 35.7864
lwrist -5.17023
lhand -12.8415 16.847
lfingers 7.12502
lthumb 13.246 46.4061
rfemur -14.2263 4.35395 12.2131
rtibia 28.9445
rfoot -15.9563 0.565143
rtoes -16.1234
lfemur 0.380527 -20.2022 -10.4593
ltibia 17.0347
lfoot -22.1877 20.6388
ltoes -20.6516
41
root -19.1407 16.9255 13.2898 -181.321 74.1854 -182.892
lowerback 1.12656 -3.18217 3.40725
upperback 1.74451 -4.21054 -0.613251
thorax 0.869299 -2.05813 -2.50752
lowerneck 9.8852 5.90149 -4.49894
upperneck -21.7775 11.7537 14.4474
head -9.67008 4.7926 4.32561
rclavicle 1.09083e-014 3.47873e-015
rhumerus -29.0617 -7.09458 -87.4951
rradius 33.4236
rwrist 27.6293
rhand 9.71014 -21.3349
rfingers 7.12502
rthumb 34.8514 -47.9256
lclavicle 1.09083e-014 3.47873e-015
lhumerus -32.2717 13.0603 86.3579
lradius 35.743
lwrist -5.74001
lhand -12.6253 16.7023
lfingers 7.12502
lthumb 13.4544 46.2478
rfemur -14.372 4.42999 12.4527
rtibia 29.0966
rfoot -16.1261 0.2625
rtoes -15.5524
lfemur -0.16937 -19.5801 -10.0506
ltibia 17.357
lfoot -21.8517 20.1549
ltoes -20.814
42
root -19.1204 16.9388 13.3645 -181.611 73.766 -183.584
lowerback 1.20458 -3.29941 3.34887
upperback 1.57609 -4.36408 -0.529947
thorax 0.652861 -2.14298 -2.37623
lowerneck 10.0035 5.86446 -4.29309
upperneck -21.7363 11.7429 14.4755
head -9.66846 4.76466 4.29763
rclavicle -8.46077e-015 -3.18055e-015
rhumerus -29.1188 -7.35558 -87.2519
rradius 33.6005
rwrist 27.5102
rhand 9.53256 -21.4749
rfingers 7.12502
rthumb 34.6829 -48.1044
lclavicle -8.46077e-015 -3.18055e-015
lhumerus -32.346 12.3562 86.9366
lradius 35.9224
lwrist -6.00431
lhand -12.1539 16.4559
lfingers 7.12502
lthumb 13.9087 45.9708
rfemur -14.7071 4.98535 12.4538
rtibia 29.2527
rfoot -16.3565 -0.62626
rtoes -15.2827
lfemur -1.03295 -18.8144 -9.77278
ltibia 17.7308
lfoot -21.6206 19.4491
ltoes -20.7511
43
root -19.0997 16.9518 13.4316 -182.456 73.5567 -184.599
lowerback 1.33781 -3.35261 3.31629
upperback 1.57348 -4.42967 -0.481303
thorax 0.577595 -2.17729 -2.29863
lowerneck 10.0719 5.88506 -4.3068
upperneck -21.7226 11.7878 14.5387
head -9.68764 4.77828 4.31402
rclavicle 4.19933e-014 2.78299e-015
rhumerus -28.999 -7.53812 -87.0214
rradius 33.7097
rwrist 27.4433
rhand 9.85592 -21.3563
rfingers 7.12502
rthumb 34.9897 -47.9148
lclavicle 4.19933e-014 2.78299e-015
lhumerus -32.3572 11.7716 87.5611
lradius 36.1657
lwrist -6.40268
lhand -12.5143 16.635
lfingers 7.12502
lthumb 13.5613 46.1733
rfemur -14.8137 5.7618 12.3757
rtibia 29.3833
rfoot -16.5746 -1.50546
rtoes -15.1276
lfemur -1.58664 -17.991 -9.76423
ltibia 18.2018
lfoot -21.2293 19.1757
ltoes -20.5722
